<?xml version="1.0" encoding="utf-8"?>
<!-- Generator: Adobe Illustrator 15.0.0, SVG Export Plug-In . SVG Version: 6.00 Build 0)  -->
<!DOCTYPE svg PUBLIC "-//W3C//DTD SVG 1.1//EN" "http://www.w3.org/Graphics/SVG/1.1/DTD/svg11.dtd">
<svg version="1.1" id="Layer_1" xmlns="http://www.w3.org/2000/svg" xmlns:xlink="http://www.w3.org/1999/xlink" x="0px" y="0px"
	 width="38px" height="38px" viewBox="0 0 38 38" enable-background="new 0 0 38 38" xml:space="preserve">
<path fill="#948FF2" d="M19,30c-2.042,0-3.956-0.56-5.596-1.532C12.488,28.821,11.561,29,10.642,29
	c-4.696,0-6.322-3.153-7.756-5.936c-0.659-1.276-1.28-2.482-2.155-3.357L0.023,19l0.707-0.707c0.875-0.875,1.496-2.081,2.155-3.357
	C4.319,12.153,5.945,9,10.642,9c0.919,0,1.847,0.179,2.763,0.532C15.045,8.559,16.958,8,19,8c2.041,0,3.955,0.559,5.595,1.532
	C25.512,9.179,26.439,9,27.358,9c4.696,0,6.322,3.153,7.757,5.936c0.658,1.277,1.279,2.482,2.154,3.357L37.977,19l-0.707,0.707
	c-0.875,0.875-1.496,2.081-2.154,3.357C33.681,25.847,32.055,29,27.358,29c-0.919,0-1.846-0.179-2.763-0.532
	C22.955,29.44,21.042,30,19,30z M19,12c-3.859,0-7,3.141-7,7c0,3.861,3.141,7,7,7c3.861,0,7-3.139,7-7C26,15.141,22.861,12,19,12z"
	/>
<path opacity="0.8" fill="none" stroke="#231F20" stroke-width="2" stroke-miterlimit="10" d="M29,19c0,5.522-4.478,10-10,10
	c-5.523,0-10-4.478-10-10c0-5.523,4.477-10,10-10C24.522,9,29,13.477,29,19z M13.487,10.651C12.595,10.244,11.643,10,10.642,10
	c-6.084,0-6.204,6-9.204,9c3,3,3.12,9,9.204,9c1.003,0,1.957-0.245,2.851-0.654 M24.508,27.346C25.401,27.755,26.355,28,27.358,28
	c6.084,0,6.204-6,9.204-9c-3-3-3.12-9-9.204-9c-1.001,0-1.953,0.244-2.846,0.651 M10.341,14l8.911,14.994 M27.659,14.001l-17.318,0
	 M19.251,28.994l8.408-14.993"/>
</svg>
