<?xml version="1.0" encoding="utf-8"?>
<!-- Generator: Adobe Illustrator 15.0.0, SVG Export Plug-In . SVG Version: 6.00 Build 0)  -->
<!DOCTYPE svg PUBLIC "-//W3C//DTD SVG 1.1//EN" "http://www.w3.org/Graphics/SVG/1.1/DTD/svg11.dtd">
<svg version="1.1" id="Layer_1" xmlns="http://www.w3.org/2000/svg" xmlns:xlink="http://www.w3.org/1999/xlink" x="0px" y="0px"
	 width="38px" height="38px" viewBox="0 0 38 38" enable-background="new 0 0 38 38" xml:space="preserve">
<path fill="#80E87E" d="M23.506,35.821L22.64,35.32C22.421,35.194,22.03,35.1,21.617,35c-0.772-0.187-1.842-0.444-2.618-1.213
	c-0.776,0.77-1.846,1.027-2.619,1.214c-0.413,0.1-0.803,0.193-1.022,0.32l-0.866,0.5l-0.5-0.866
	c-0.126-0.219-0.417-0.496-0.725-0.788c-0.577-0.548-1.375-1.307-1.662-2.361c-1.057,0.276-2.112-0.033-2.874-0.259
	c-0.408-0.12-0.792-0.233-1.045-0.233h-1v-1c0-0.253-0.114-0.638-0.234-1.046c-0.226-0.762-0.537-1.817-0.259-2.875
	c-1.054-0.287-1.812-1.084-2.359-1.659c-0.293-0.309-0.57-0.599-0.789-0.726l-0.867-0.5l0.5-0.866C2.806,22.422,2.9,22.031,3,21.618
	C3.186,20.846,3.444,19.775,4.213,19C3.444,18.224,3.186,17.154,3,16.382c-0.1-0.413-0.194-0.803-0.321-1.022l-0.5-0.866l0.866-0.5
	c0.219-0.126,0.496-0.417,0.789-0.726c0.547-0.576,1.306-1.374,2.36-1.661C5.916,10.55,6.228,9.494,6.452,8.732
	c0.12-0.407,0.234-0.792,0.234-1.045v-1h1c0.253,0,0.638-0.114,1.046-0.234c0.762-0.226,1.818-0.538,2.875-0.259
	c0.287-1.054,1.084-1.813,1.661-2.36c0.308-0.293,0.599-0.569,0.726-0.789l0.5-0.866l0.866,0.5c0.219,0.127,0.61,0.221,1.023,0.321
	C17.154,3.186,18.224,3.444,19,4.213c0.776-0.77,1.846-1.027,2.618-1.213c0.414-0.1,0.804-0.194,1.023-0.321l0.866-0.5l0.5,0.866
	c0.127,0.219,0.417,0.496,0.726,0.789c0.575,0.548,1.373,1.306,1.66,2.36c1.057-0.279,2.112,0.033,2.875,0.258
	c0.407,0.12,0.793,0.234,1.046,0.234h1v1c0,0.253,0.113,0.638,0.233,1.045c0.225,0.762,0.536,1.818,0.258,2.874
	c1.055,0.288,1.813,1.085,2.36,1.662c0.292,0.308,0.569,0.599,0.788,0.726l0.866,0.5l-0.5,0.866
	c-0.127,0.219-0.221,0.609-0.32,1.022c-0.186,0.773-0.443,1.842-1.214,2.619c0.771,0.775,1.027,1.846,1.214,2.619
	c0.1,0.413,0.193,0.804,0.32,1.022l0.5,0.866l-0.866,0.5c-0.219,0.126-0.495,0.417-0.788,0.725c-0.548,0.576-1.306,1.373-2.359,1.66
	c0.278,1.057-0.034,2.113-0.259,2.875c-0.121,0.408-0.234,0.793-0.234,1.046v1h-1c-0.253,0-0.638,0.113-1.045,0.233
	c-0.762,0.226-1.817,0.537-2.875,0.259c-0.287,1.055-1.086,1.813-1.662,2.361c-0.308,0.293-0.599,0.569-0.725,0.788L23.506,35.821z
	 M19,10c-4.962,0-9,4.038-9,9c0,4.964,4.038,9,9,9c4.964,0,9-4.036,9-9C28,14.038,23.964,10,19,10z"/>
<path opacity="0.8" fill="none" stroke="#231F20" stroke-width="2" stroke-miterlimit="10" d="M7,19c0-6.627,5.373-12,12-12
	s12,5.373,12,12s-5.373,12-12,12S7,25.627,7,19z M8.608,13C5.837,11.4,7.686,9.167,7.686,7.687c1.481,0,3.714-1.85,5.313,0.921
	 M29.393,25c2.771,1.6,0.921,3.833,0.921,5.313c-1.48,0-3.713,1.85-5.313-0.922 M25.001,8.607c1.6-2.771,3.832-0.921,5.313-0.921
	c0,1.481,1.849,3.713-0.923,5.314 M13,29.392c-1.601,2.771-3.833,0.922-5.313,0.922c0-1.48-1.851-3.714,0.921-5.313 M7.001,19
	c-3.201,0-2.715-2.858-3.456-4.141C4.828,14.119,5.836,11.4,8.607,13 M31,19c3.2,0,2.714,2.859,3.454,4.142
	c-1.282,0.74-2.29,3.458-5.063,1.857 M19,7c0-3.2,2.858-2.714,4.141-3.455C23.882,4.828,26.6,5.837,25,8.608 M19,30.999
	c0,3.201-2.858,2.716-4.141,3.456c-0.74-1.282-3.459-2.291-1.859-5.063 M8.608,24.999c-2.772,1.601-3.78-1.117-5.063-1.857
	C4.286,21.858,3.8,19,6.999,19 M29.393,13c2.771-1.6,3.779,1.12,5.062,1.86c-0.74,1.282-0.254,4.14-3.455,4.14 M13,8.606
	c-1.6-2.771,1.118-3.779,1.859-5.062C16.142,4.285,19,3.8,19,7 M24.999,29.392c1.601,2.772-1.117,3.781-1.858,5.063
	C21.859,33.714,19,34.2,19,31 M19,7l10.393,18 M8.611,24.999L29.393,25 M8.611,24.999L19,7 M12.074,19l-3.467-6 M19,31l-3.464-6.001
	 M15.536,13.001L8.607,13 M29.389,13.001h-6.924 M22.463,25L19,31 M29.389,13.001L25.926,19"/>
</svg>
