<?xml version="1.0" encoding="utf-8"?>
<!-- Generator: Adobe Illustrator 15.0.0, SVG Export Plug-In . SVG Version: 6.00 Build 0)  -->
<!DOCTYPE svg PUBLIC "-//W3C//DTD SVG 1.1//EN" "http://www.w3.org/Graphics/SVG/1.1/DTD/svg11.dtd">
<svg version="1.1" id="Layer_1" xmlns="http://www.w3.org/2000/svg" xmlns:xlink="http://www.w3.org/1999/xlink" x="0px" y="0px"
	 width="38px" height="38px" viewBox="0 0 38 38" enable-background="new 0 0 38 38" xml:space="preserve">
<path fill="#F49314" d="M20.001,22.388C21,21.75,22,21.146,22,21.146V20H12v3c0,0.341,0.01,0.673,0.023,1H18
	C18,24,19.003,23.025,20.001,22.388z"/>
<path opacity="0.8" fill="none" stroke="#231F20" stroke-width="2" stroke-miterlimit="10" d="M17,24c0,4.063,2,13,2,13h-5
	 M17,2.013c0,0-6,3.343-6,7.987c0,3.125,2,5,2,5s0,2,0,8c0,4.415,1.232,7.5,3.5,14 M17.688,29.09c4.88,0,7.312-0.965,7.312-2.527
	c0-2.965-4-4.813-4-4.813c0-6,0-6.75,0-6.75s2-2,2-5c0-4.645-6-7.987-6-7.987V0 M17,7c-1.104,0-2,1.343-2,3s0.896,3,2,3s2-1.343,2-3
	S18.104,7,17,7z"/>
</svg>
