<?xml version="1.0" encoding="utf-8"?>
<!-- Generator: Adobe Illustrator 15.0.0, SVG Export Plug-In . SVG Version: 6.00 Build 0)  -->
<!DOCTYPE svg PUBLIC "-//W3C//DTD SVG 1.1//EN" "http://www.w3.org/Graphics/SVG/1.1/DTD/svg11.dtd">
<svg version="1.1" id="Layer_1" xmlns="http://www.w3.org/2000/svg" xmlns:xlink="http://www.w3.org/1999/xlink" x="0px" y="0px"
	 width="38px" height="38px" viewBox="0 0 38 38" enable-background="new 0 0 38 38" xml:space="preserve">
<path fill="#F49314" d="M24.204,23.007c-3.188-0.386-6.339-0.637-8.802-0.785c-0.332,0.337-0.71,0.71-1.066,1.03
	c-0.519,0.46-1.018,0.909-1.505,1.351c-0.003,0.003-0.003,0.006-0.007,0.009c1.928,1.826,4.319,4.192,5.477,5.724
	c0.485-0.184,0.891-0.308,1.176-0.343c1.366-0.168,3.078-0.178,4.519-0.14C23.982,26.872,23.938,23.981,24.204,23.007z"/>
<path opacity="0.8" fill="none" stroke="#231F20" stroke-width="2" stroke-miterlimit="10" d="M21,0v14c3,1,3,2.831,3,4
	c0,1.252-1,5.875-1,5.875s3.253,0.322,6.313,1.008c1.034,0.231,1.749,0.867,1.749,2.055c0,1.563-1,10.063-1,10.063 M18,9
	c0,0-3.451,0-4,0c-1.657,0-3,1.344-3,3c0,1.657,1.343,3,3,3c0.549,0,3,0,3,0s-0.014,4.604,0,7c0,0-1.078,1.17-2,2
	C6.197,31.812,2,37,2,37h2.063c0,0,12.25-7.625,15.292-8S27,29,27,29v8h5"/>
</svg>
