<?xml version="1.0" encoding="utf-8"?>
<!-- Generator: Adobe Illustrator 15.0.0, SVG Export Plug-In . SVG Version: 6.00 Build 0)  -->
<!DOCTYPE svg PUBLIC "-//W3C//DTD SVG 1.1//EN" "http://www.w3.org/Graphics/SVG/1.1/DTD/svg11.dtd">
<svg version="1.1" id="Layer_1" xmlns="http://www.w3.org/2000/svg" xmlns:xlink="http://www.w3.org/1999/xlink" x="0px" y="0px"
	 width="38px" height="38px" viewBox="0 0 38 38" enable-background="new 0 0 38 38" xml:space="preserve">
<path fill="#F49314" d="M12.459,15.48c0.691-1.081,3.365-4.845,5.474-7.255C16.542,6.771,15.148,6,13.248,6
	c-2.743,0-4.884,0.748-6.654,4.069C8.233,11.133,11.243,13.791,12.459,15.48z"/>
<path opacity="0.8" fill="none" stroke="#231F20" stroke-width="2" stroke-miterlimit="10" d="M8,31H1c0,0,1.438-7.464,5.57-18.438
	C8.45,7.57,10.625,7,13.248,7c3,0,4.562,2.313,7.752,7c2.517,3.697,11,17,14,17c1,0,3,0,3,0 M29.65,26.268
	c0,0-0.275,2.732-3.9,2.732C22.438,29,21,25.232,21,23.954c0-1.442,0.357-2.377,0.625-2.954c-1,0-3.25,0.001-4.938-1.491
	s-2.903-4.287-4.313-5.696c0,0-4.676,6.355-8,17.188"/>
</svg>
