<?xml version="1.0" encoding="utf-8"?>
<!-- Generator: Adobe Illustrator 15.0.0, SVG Export Plug-In . SVG Version: 6.00 Build 0)  -->
<!DOCTYPE svg PUBLIC "-//W3C//DTD SVG 1.1//EN" "http://www.w3.org/Graphics/SVG/1.1/DTD/svg11.dtd">
<svg version="1.1" id="Layer_1" xmlns="http://www.w3.org/2000/svg" xmlns:xlink="http://www.w3.org/1999/xlink" x="0px" y="0px"
	 width="38px" height="38px" viewBox="0 0 38 38" enable-background="new 0 0 38 38" xml:space="preserve">
<path fill="#F49314" d="M10.28,4.146C5.965,4.824,4,8.043,4,11.25c0,0.986,0.172,1.871,0.459,2.75h10.563
	c-0.465-0.708-0.925-1.527-1.371-2.5L10.28,4.146z"/>
<path opacity="0.8" fill="none" stroke="#231F20" stroke-width="2" stroke-miterlimit="10" d="M17.578,21.744
	c0,0,0.911,2.531,1.658,4.608c0.749,2.079,3.039,3.158,5.118,2.41c2.078-0.748,3.157-3.04,2.408-5.117
	c-0.429-1.196-1.596-4.44-2.511-6.981C22.17,10.889,17.147,5,12,5c-4.75,0-7,2.917-7,6.25c0,5,4.917,7.417,8,23.75h7 M17,35
	c-1-9.478-2.797-17.264-4.258-23.083C15.537,18.014,19,19,21.75,19c2.048,0,3.85-1.102,4.964-2.162
	c3.988-3.795,8.866-8.436,8.866-8.436"/>
</svg>
