<?xml version="1.0" encoding="utf-8"?>
<!-- Generator: Adobe Illustrator 15.0.0, SVG Export Plug-In . SVG Version: 6.00 Build 0)  -->
<!DOCTYPE svg PUBLIC "-//W3C//DTD SVG 1.1//EN" "http://www.w3.org/Graphics/SVG/1.1/DTD/svg11.dtd">
<svg version="1.1" id="Layer_1" xmlns="http://www.w3.org/2000/svg" xmlns:xlink="http://www.w3.org/1999/xlink" x="0px" y="0px"
	 width="38px" height="38px" viewBox="0 0 38 38" enable-background="new 0 0 38 38" xml:space="preserve">
<path fill="#F49314" d="M18,31.987C18.564,31.995,19.127,32,19.688,32c2.422,0,4.428-0.304,6.101-0.8l-3.789-7.148
	c-1.14,0.521-2.457,0.953-3.999,1.276V31.987z"/>
<path opacity="0.8" fill="none" stroke="#231F20" stroke-width="2" stroke-miterlimit="10" d="M30.113,17.164
	C27.409,22.033,23.938,27,10.5,27C6.104,27,1,27,1,27v5 M1,30c0,0,9.688,1,18.688,1C31.688,31,33,23.252,33,22
	c0-2.666-2.383-4.298-4.393-5.802c-0.44-0.328-1.964-1.467-2.403-1.796c-1.327-0.992-1.599-2.872-0.606-4.199
	c0.991-1.326,2.871-1.598,4.199-0.606c0.439,0.329,4.805,3.592,4.805,3.592l-1.423,2.092 M25.055,23.41L29.078,31H32"/>
</svg>
