<?xml version="1.0" encoding="utf-8"?>
<!-- Generator: Adobe Illustrator 15.0.0, SVG Export Plug-In . SVG Version: 6.00 Build 0)  -->
<!DOCTYPE svg PUBLIC "-//W3C//DTD SVG 1.1//EN" "http://www.w3.org/Graphics/SVG/1.1/DTD/svg11.dtd">
<svg version="1.1" id="Layer_1" xmlns="http://www.w3.org/2000/svg" xmlns:xlink="http://www.w3.org/1999/xlink" x="0px" y="0px"
	 width="38px" height="38px" viewBox="0 0 38 38" enable-background="new 0 0 38 38" xml:space="preserve">
<path fill="#F49314" d="M12.825,24.611c1.928,1.826,4.319,4.192,5.477,5.724c0.485-0.184,0.891-0.308,1.176-0.343
	c1.366-0.168,3.078-0.178,4.519-0.14c-0.014-2.98-0.01-5.57,0.01-6.87c-3.812-0.461-7.386-0.707-9.973-0.838
	c-0.014,0.451-0.026,0.914-0.031,1.405C13.596,23.911,13.21,24.262,12.825,24.611z"/>
<path opacity="0.8" fill="none" stroke="#231F20" stroke-width="2" stroke-miterlimit="10" d="M0,15c0,0,11.563,0,13,0
	c3,0,2,3.25,2,9C6.197,31.812,2,37,2,37h2.063c0,0,12.25-7.625,15.292-8S27,29,27,29v8h5 M38,13H23c0,0,0-5.451,0-6
	c0-1.657-1.344-3-3-3c-1.657,0-3,1.343-3,3c0,0.549,0,2.451,0,3c0,2.836,1.043,3.903,4,5.306c1.469,0.696,2.25,1.525,2.25,2.694
	c0,1.252-0.25,2.518-0.25,5.875c0,0,3.253,0.322,6.313,1.008c1.034,0.231,1.749,0.867,1.749,2.055c0,1.563-1,10.063-1,10.063"/>
</svg>
