<?xml version="1.0" encoding="utf-8"?>
<!-- Generator: Adobe Illustrator 15.0.0, SVG Export Plug-In . SVG Version: 6.00 Build 0)  -->
<!DOCTYPE svg PUBLIC "-//W3C//DTD SVG 1.1//EN" "http://www.w3.org/Graphics/SVG/1.1/DTD/svg11.dtd">
<svg version="1.1" id="Layer_1" xmlns="http://www.w3.org/2000/svg" xmlns:xlink="http://www.w3.org/1999/xlink" x="0px" y="0px"
	 width="38px" height="38px" viewBox="0 0 38 38" enable-background="new 0 0 38 38" xml:space="preserve">
<path fill="#F49314" d="M19.375,17.556c0.132-0.189,0.544-0.798,1.273-1.704c-0.707-3.875,1.358-5.582,3.199-6.337
	C22.165,8.581,20.513,8,19,8c-2.058,0-4.1,0.847-5.857,2.227C13.58,13.822,16.396,16.676,19.375,17.556z"/>
<path opacity="0.8" fill="none" stroke="#231F20" stroke-width="2" stroke-miterlimit="10" d="M18,23c0,0,4.344,0,6,0s3,1.343,3,3
	s-1.344,3-3,3S0,29,0,29 M37,27c-9-8.5-18-10.583-18-10.583S17,18.5,17,22c0,4,2,7,2,7 M37,30v-6.667C34.074,19.616,25,9,19,9
	C14.25,9,9,14.357,9,20.395C9,22.139,9.171,23.455,9.653,25H14"/>
</svg>
