<?xml version="1.0" encoding="utf-8"?>
<!-- Generator: Adobe Illustrator 15.0.0, SVG Export Plug-In . SVG Version: 6.00 Build 0)  -->
<!DOCTYPE svg PUBLIC "-//W3C//DTD SVG 1.1//EN" "http://www.w3.org/Graphics/SVG/1.1/DTD/svg11.dtd">
<svg version="1.1" id="Layer_1" xmlns="http://www.w3.org/2000/svg" xmlns:xlink="http://www.w3.org/1999/xlink" x="0px" y="0px"
	 width="38px" height="38px" viewBox="0 0 38 38" enable-background="new 0 0 38 38" xml:space="preserve">
<path fill="#F49314" d="M19.384,24.26c-1.96-1.058-4.831-2.157-7.56-2.979C10.758,22.419,10,23.518,10,25.188
	c0,2.372,1.327,3.422,3.118,4.229C15.914,27.482,18.572,25.164,19.384,24.26z"/>
<path opacity="0.8" fill="none" stroke="#231F20" stroke-width="2" stroke-miterlimit="10" d="M22,37h-6l2.281-6.533
	C14.075,28.437,11,28.458,11,25.188c0-3.195,3.334-3.684,7.397-10.291C20.669,11.201,21,4.204,21,2c0-1,0-2,0-2 M22.38,13.438
	l1.418-4.06c0,0-3.034-1.404-4.538-2.101c-1.503-0.696-3.287-0.041-3.982,1.462c-0.696,1.503-0.042,3.287,1.462,3.983
	c1.504,0.696,2.723,1.26,2.723,1.26S21,15.563,21,18.5c0,1.967-0.875,3.65-3.249,6.025c4.249,2.225,5.274,3.037,5.274,4.645
	c0,1.43-0.752,2.36-3.656,7.83"/>
</svg>
