<?xml version="1.0" encoding="utf-8"?>
<!-- Generator: Adobe Illustrator 15.0.0, SVG Export Plug-In . SVG Version: 6.00 Build 0)  -->
<!DOCTYPE svg PUBLIC "-//W3C//DTD SVG 1.1//EN" "http://www.w3.org/Graphics/SVG/1.1/DTD/svg11.dtd">
<svg version="1.1" id="Layer_1" xmlns="http://www.w3.org/2000/svg" xmlns:xlink="http://www.w3.org/1999/xlink" x="0px" y="0px"
	 width="38px" height="38px" viewBox="0 0 38 38" enable-background="new 0 0 38 38" xml:space="preserve">
<path fill="#F49314" d="M18.599,16.957l-4.971-8.566C10.472,10.18,8,12.85,8,16c0,0.303,0.008,0.608,0.023,0.923L16,19.312
	C16.337,18.851,17.229,17.762,18.599,16.957z"/>
<path opacity="0.8" fill="none" stroke="#231F20" stroke-width="2" stroke-miterlimit="10" d="M34,31h-3V11.535 M31,26.874
	c0,0,0.711,0.126,1,0.126c2.762,0,5-2.238,5-5c0-1.125-0.48-2.091-0.998-2.997C32,12,28.417,7,22,7c-5.393,0-13,4-13,9
	c0,2.126,0.374,4.313,1.319,10.56L3,27l-1.526,4c0,0,9.712,0,10.712,0C13.842,31,15,30,15,28s0-9,0-9s2.5-4,7-4c2.083,0,5,3,5,3
	l-2.664,2.79L27,24.188"/>
</svg>
