<?xml version="1.0" encoding="utf-8"?>
<!-- Generator: Adobe Illustrator 15.0.0, SVG Export Plug-In . SVG Version: 6.00 Build 0)  -->
<!DOCTYPE svg PUBLIC "-//W3C//DTD SVG 1.1//EN" "http://www.w3.org/Graphics/SVG/1.1/DTD/svg11.dtd">
<svg version="1.1" id="Layer_1" xmlns="http://www.w3.org/2000/svg" xmlns:xlink="http://www.w3.org/1999/xlink" x="0px" y="0px"
	 width="38px" height="38px" viewBox="0 0 38 38" enable-background="new 0 0 38 38" xml:space="preserve">
<path fill="#F49314" d="M20.747,25.469L19.892,24H12c0,1.041,0,2.255,0,2.989c0,2.366,1.385,3.793,2.622,4.502
	c0.43,0.246,1.4,0.509,1.988,0.509C18.855,27.646,19.75,26.375,20.747,25.469z"/>
<path opacity="0.8" fill="none" stroke="#231F20" stroke-width="2" stroke-miterlimit="10" d="M24.063,31C23.188,31,16,31,16,31
	s-3-0.802-3-4.011C13,24.241,13,13,13,13s2.617,0,3.667,0c1.741,0,2.973,0.701,3.961,2.401c2.091,3.594,7.843,13.482,7.843,13.482
	 M17.679,18.208l3.78,6.497c0,0,5.025,2.474,5.613,2.796C28.273,28.161,29,29.426,29,31c0,1.978-1.307,4-4,4
	c-2.556,0-11.063,0-11.063,0L16,31 M21,12c0,0,0-4.791,0-7s-1.791-4-4-4s-4,1.791-4,4s0,11,0,11"/>
</svg>
