<?xml version="1.0" encoding="utf-8"?>
<!-- Generator: Adobe Illustrator 15.0.0, SVG Export Plug-In . SVG Version: 6.00 Build 0)  -->
<!DOCTYPE svg PUBLIC "-//W3C//DTD SVG 1.1//EN" "http://www.w3.org/Graphics/SVG/1.1/DTD/svg11.dtd">
<svg version="1.1" id="Layer_1" xmlns="http://www.w3.org/2000/svg" xmlns:xlink="http://www.w3.org/1999/xlink" x="0px" y="0px"
	 width="38px" height="38px" viewBox="0 0 38 38" enable-background="new 0 0 38 38" xml:space="preserve">
<path fill="#F49314" d="M22.311,26.255l-4.125-1.772c-0.629,0.938-1.234,1.785-1.815,2.542c-0.871,1.135-1.296,3.891-0.145,5.684
	c1.151,1.792,3.878,2.62,6.084,1.762c0.953-0.371,1.86-0.737,2.688-1.08L22.311,26.255z"/>
<path opacity="0.8" fill="none" stroke="#231F20" stroke-width="2" stroke-miterlimit="10" d="M1,36c0,0,4.563,1,8.313,1
	C15.063,37,29,30.562,29,30.562V37h5 M25.031,14.758c-4.222,7.993-8.968,15.692-12.774,17.499C8.45,34.064,1,33.188,1,33.188V38
	 M22.663,27.19c0,0,6.12-2.308,8.65-2.308c1.06,0,1.749,0.867,1.749,2.055c0,1.563-1,10.063-1,10.063 M28.218,13.322l2.22-4.345
	c0,0-4.715-3-5.367-3.35c-1.965-1.057-4.084-0.937-5.453,1.609c-1.37,2.546-0.303,4.38,1.662,5.437
	c0.652,0.35,1.533,0.897,3.752,2.085C28.486,16.609,29,17.808,29,21c0,1.252,0,13.643,0,17"/>
</svg>
