<?xml version="1.0" encoding="utf-8"?>
<!-- Generator: Adobe Illustrator 15.0.0, SVG Export Plug-In . SVG Version: 6.00 Build 0)  -->
<!DOCTYPE svg PUBLIC "-//W3C//DTD SVG 1.1//EN" "http://www.w3.org/Graphics/SVG/1.1/DTD/svg11.dtd">
<svg version="1.1" id="Layer_1" xmlns="http://www.w3.org/2000/svg" xmlns:xlink="http://www.w3.org/1999/xlink" x="0px" y="0px"
	 width="38px" height="38px" viewBox="0 0 38 38" enable-background="new 0 0 38 38" xml:space="preserve">
<path fill="#F49314" d="M9,22l-5.525-6.906C1.292,16.85,0,19.241,0,22H9z"/>
<path opacity="0.8" fill="none" stroke="#231F20" stroke-width="2" stroke-miterlimit="10" d="M1.113,21c0,0,6.012,0,9.012,0
	C11.89,21,13,22.261,13,24c0,1.732-1.173,3-2.938,3C9.188,27,7.25,27,6,27c-2,0-5-1-5-5c0-5.313,5.438-9,12.438-9
	c3.563,0,6.284,1.269,8.143,3.762c0.955,1.283,2.868,3.848,3.821,5.13C27.025,24.07,28.75,25,31,25c2,0,6,0,6,0v-7 M12.854,25h8.862
	l-2.977-3.997L14,21 M37,21.005h-6.537C30.805,20.415,31,19.73,31,19c0-2.209-1.791-4-4-4s-7.131,0-7.131,0"/>
</svg>
