<?xml version="1.0" encoding="utf-8"?>
<!-- Generator: Adobe Illustrator 15.0.0, SVG Export Plug-In . SVG Version: 6.00 Build 0)  -->
<!DOCTYPE svg PUBLIC "-//W3C//DTD SVG 1.1//EN" "http://www.w3.org/Graphics/SVG/1.1/DTD/svg11.dtd">
<svg version="1.1" id="Layer_1" xmlns="http://www.w3.org/2000/svg" xmlns:xlink="http://www.w3.org/1999/xlink" x="0px" y="0px"
	 width="38px" height="38px" viewBox="0 0 38 38" enable-background="new 0 0 38 38" xml:space="preserve">
<path fill="#F49314" d="M6,18c1,0,2.042,0,2.042,0l-3.985-6.903C1.293,12.404,0,14.7,0,16.989c0,2.366,1.385,3.793,2.622,4.502
	C3.56,19.671,4.306,18,6,18z"/>
<path opacity="0.8" fill="none" stroke="#231F20" stroke-width="2" stroke-miterlimit="10" d="M10.063,21C9.188,21,4,21,4,21
	s-3-0.802-3-4.011C1,13.596,4.07,11,9.583,11c6.208,0,9.727,3.212,13.193,6c4.971,4,9.995,8,15.224,8 M6,17c0,0,3.917,0,5,0
	c2.391,0,4,1.657,4,4c0,1.978-1.306,4-4,4c-2.556,0-9.063,0-9.063,0L4,21 M17,20v5c0,0,5.374,0,6,0c2.209,0,4-1.791,4-4
	c0-0.694,0-0.694,0-0.694"/>
</svg>
