<?xml version="1.0" encoding="utf-8"?>
<!-- Generator: Adobe Illustrator 15.0.0, SVG Export Plug-In . SVG Version: 6.00 Build 0)  -->
<!DOCTYPE svg PUBLIC "-//W3C//DTD SVG 1.1//EN" "http://www.w3.org/Graphics/SVG/1.1/DTD/svg11.dtd">
<svg version="1.1" id="Layer_1" xmlns="http://www.w3.org/2000/svg" xmlns:xlink="http://www.w3.org/1999/xlink" x="0px" y="0px"
	 width="38px" height="38px" viewBox="0 0 38 38" enable-background="new 0 0 38 38" xml:space="preserve">
<path fill="#F49314" d="M11.904,14.745c-2.75,0.692-4.175,1.989-5.36,4.283c-0.334,0.648-0.697,1.519-1.071,2.527
	c2.91,2.042,5.721,4.114,6.434,4.719c1.504-1.942,1.667-2.212,3.093-2.212c0.67,0,2.008,0,3,0
	C17.973,24.021,13.648,17.411,11.904,14.745z"/>
<path opacity="0.8" fill="none" stroke="#231F20" stroke-width="2" stroke-miterlimit="10" d="M27,35.99L18.5,23
	c5.75,0,6.508-0.368,6.935,2.625C25.639,27.06,27.25,37,27.25,37 M23.601,12.181c0.188,1.31-0.808,2.868-2.911,2.869
	c-9.355,0.001-11.516,1.064-13.257,4.438C5.338,23.545,2,37,2,37h2.063c0,0,6.951-12,7.736-12S24,37,24,37h6 M21.873,0.083
	l2.137,14.965C24.579,19.039,25.164,21,28,21c0.549,0,2.451,0,3,0c1.656,0,3-1.344,3-3s-1.344-3-3-3c-2.564,0-6.99,0.049-6.99,0.049
	"/>
</svg>
