<?xml version="1.0" encoding="utf-8"?>
<!-- Generator: Adobe Illustrator 15.0.0, SVG Export Plug-In . SVG Version: 6.00 Build 0)  -->
<!DOCTYPE svg PUBLIC "-//W3C//DTD SVG 1.1//EN" "http://www.w3.org/Graphics/SVG/1.1/DTD/svg11.dtd">
<svg version="1.1" id="Layer_1" xmlns="http://www.w3.org/2000/svg" xmlns:xlink="http://www.w3.org/1999/xlink" x="0px" y="0px"
	 width="38px" height="38px" viewBox="0 0 38 38" enable-background="new 0 0 38 38" xml:space="preserve">
<path fill="#F49314" d="M18.497,21.607l-3.648-1.376l-4.018,9.429C13.274,31.064,15.98,32,19,32c0.333,0,0.662-0.033,0.99-0.067
	L18.497,21.607z"/>
<path opacity="0.8" fill="none" stroke="#231F20" stroke-width="2" stroke-miterlimit="10" d="M26.654,15.122l-7.918,7.645
	l-9.819-3.704l2.847-9.553 M32.119,14.368l3.107-3.069c0,0-3.216-3.939-3.817-4.574c-1.814-1.917-4.237-2.568-6.72-0.217
	c-2.482,2.349-1.965,4.805-0.152,6.72c0.604,0.635,2.117,1.894,2.117,1.894 M8.079,8.077C4.255,16.274,3,18,3,20
	c0,1.156,0.589,2.437,1.447,3.283C8.854,27.635,13.362,31,19,31c6.333,0,12-7.327,12-10.617c0-2.973-1.263-4.1-4.346-5.261
	C5.438,7.125,5.438,7.125,5.438,7.125"/>
</svg>
