<?xml version="1.0" encoding="utf-8"?>
<!-- Generator: Adobe Illustrator 15.0.0, SVG Export Plug-In . SVG Version: 6.00 Build 0)  -->
<!DOCTYPE svg PUBLIC "-//W3C//DTD SVG 1.1//EN" "http://www.w3.org/Graphics/SVG/1.1/DTD/svg11.dtd">
<svg version="1.1" id="Layer_1" xmlns="http://www.w3.org/2000/svg" xmlns:xlink="http://www.w3.org/1999/xlink" x="0px" y="0px"
	 width="38px" height="38px" viewBox="0 0 38 38" enable-background="new 0 0 38 38" xml:space="preserve">
<path fill="#F4D240" d="M14.156,5.125C14.053,4.77,14,4.392,14,4c0-1.934,1.313-4,5-4s5,2.066,5,4c0,0.391-0.053,0.769-0.156,1.125
	h-0.03C22.357,4.412,20.728,4,19,4s-3.358,0.412-4.815,1.125H14.156z M31,16c-0.358,0-0.694,0.067-1,0.172
	c0-3.367-3.059-5.693-3.291-5.813s-0.479-0.224-0.742-0.31c-1.125-0.367-2.231,0.199-3.398,0.798c-0.779,0.4-1.637,0.84-2.568,1.041
	v26.046c1.085-0.134,2.138-0.479,3.088-1.027c1.236-0.719,4.301-2.497,5.901-5.683C29.521,31.706,30.228,32,31,32
	c1.654,0,3-1.346,3-3V19C34,17.346,32.654,16,31,16z"/>
<path opacity="0.8" fill="none" stroke="#231F20" stroke-width="2" stroke-miterlimit="10" d="M29,26.933
	c0,5.102-4.274,7.867-6.414,9.109C21.531,36.65,20.306,37,19,37c-1.307,0-2.531-0.351-3.586-0.96C13.274,34.799,9,32.033,9,26.933
	C9,24.768,9,16.571,9,15C9,9.476,13.476,5,19,5c5.523,0,10,4.476,10,10C29,16.571,29,24.768,29,26.933z M19,20v8 M10.594,22
	c0,0,1.8,1,2.901,1s2.567,0,2.567,0 M21.938,23c0,0,1.467,0,2.567,0c1.102,0,2.901-1,2.901-1 M15,30c0,0,1.668,1,4,1
	c2.327,0,4-1,4-1 M9,18c0,0-0.896-1-2-1l0,0c-1.104,0-2,0.896-2,2v10c0,1.104,0.896,2,2,2l0,0c1.104,0,2-0.896,2-2V18z M33,19
	c0-1.104-0.896-2-2-2l0,0c-1.104,0-2,1-2,1v11c0,1.104,0.896,2,2,2l0,0c1.104,0,2-0.896,2-2V19z M22.502,5.635
	C22.84,5.165,23,4.603,23,4c0-1.657-1.206-3-4-3s-4,1.343-4,3c0,0.621,0.169,1.198,0.529,1.677 M29,17c0-2.375-0.969-5.226-3.343-6
	C24.124,10.5,22,13,19,13c-2.188,0-4.969-2.061-6.05-2.066 M19,18v-2 M16,18c-1,0-3-1-4-1s-3,0-3,0 M29,17c0,0-2,0-3,0s-3,1-4,1"/>
</svg>
