<?xml version="1.0" encoding="utf-8"?>
<!-- Generator: Adobe Illustrator 15.0.0, SVG Export Plug-In . SVG Version: 6.00 Build 0)  -->
<!DOCTYPE svg PUBLIC "-//W3C//DTD SVG 1.1//EN" "http://www.w3.org/Graphics/SVG/1.1/DTD/svg11.dtd">
<svg version="1.1" id="Layer_1" xmlns="http://www.w3.org/2000/svg" xmlns:xlink="http://www.w3.org/1999/xlink" x="0px" y="0px"
	 width="38px" height="38px" viewBox="0 0 38 38" enable-background="new 0 0 38 38" xml:space="preserve">
<path fill="#F4ABEF" d="M19.051,32.561L31.77,18.346C31.919,19.469,32,20.68,32,22v14.732l-10.898-3.446
	C20.372,33.056,19.691,32.815,19.051,32.561z M14,20v-0.734c0.003-7.352,0.003-8.677-2.71-11.39L9.794,6.38
	c0.239,1.358,0.316,2.957,0.129,4.852c-0.163,1.657-0.596,3.155-1.015,4.604C8.441,17.451,8,18.977,8,20.545
	c0,5.012,4.354,6.175,7.184,6.403C14.393,25.366,14,23.188,14,20z"/>
<path opacity="0.8" fill="none" stroke="#231F20" stroke-width="2" stroke-miterlimit="10" d="M21.403,32.333
	C15.821,30.567,13,28.5,13,20c0-7.875,0.083-8.917-2.417-11.417L9,7c1.706,1.706,3.5,2,10.167,2C26.452,9,31,11.866,31,22
	c0,10,0,13.367,0,13.367S22.734,32.754,21.403,32.333z M7.675,5.675L5,3c1.25,1.25,2.355,3.702,1.938,7.938
	C6.624,14.115,5,17.017,5,20.545C5,26.206,9.227,30,16.422,30 M30.975,20.734l-10.201,11.4 M25.903,33.756L31,28.059"/>
</svg>
