<?xml version="1.0" encoding="utf-8"?>
<!-- Generator: Adobe Illustrator 15.0.0, SVG Export Plug-In . SVG Version: 6.00 Build 0)  -->
<!DOCTYPE svg PUBLIC "-//W3C//DTD SVG 1.1//EN" "http://www.w3.org/Graphics/SVG/1.1/DTD/svg11.dtd">
<svg version="1.1" id="Layer_1" xmlns="http://www.w3.org/2000/svg" xmlns:xlink="http://www.w3.org/1999/xlink" x="0px" y="0px"
	 width="38px" height="38px" viewBox="0 0 38 38" enable-background="new 0 0 38 38" xml:space="preserve">
<path fill="#F49314" d="M32,19c0,7.18-5.82,13-13,13S6,26.18,6,19S11.82,6,19,6S32,11.82,32,19z M19,9.5c-5.246,0-9.5,4.254-9.5,9.5
	c0,5.245,4.254,9.5,9.5,9.5c5.245,0,9.5-4.255,9.5-9.5C28.5,13.754,24.245,9.5,19,9.5z M19,14c-2.761,0-5,2.239-5,5
	c0,2.759,2.239,5,5,5c2.759,0,5-2.241,5-5C24,16.239,21.759,14,19,14z"/>
<path opacity="0.8" fill="none" stroke="#231F20" stroke-width="2" stroke-miterlimit="10" d="M31,19c0,6.626-5.374,12-12,12
	c-6.627,0-12-5.374-12-12c0-6.627,5.373-12,12-12C25.626,7,31,12.373,31,19z M19,17c-1.104,0-2,0.896-2,2s0.896,2,2,2s2-0.896,2-2
	S20.104,17,19,17z M19,17V2 M19,36V21 M21,19h15 M2,19h15 M20.414,17.586L31.021,6.979 M6.979,31.021l10.606-10.606 M20.414,20.414
	l10.606,10.606 M6.979,6.979l10.606,10.607"/>
</svg>
