<?xml version="1.0" encoding="utf-8"?>
<!-- Generator: Adobe Illustrator 15.0.0, SVG Export Plug-In . SVG Version: 6.00 Build 0)  -->
<!DOCTYPE svg PUBLIC "-//W3C//DTD SVG 1.1//EN" "http://www.w3.org/Graphics/SVG/1.1/DTD/svg11.dtd">
<svg version="1.1" id="Layer_1" xmlns="http://www.w3.org/2000/svg" xmlns:xlink="http://www.w3.org/1999/xlink" x="0px" y="0px"
	 width="38px" height="38px" viewBox="0 0 38 38" enable-background="new 0 0 38 38" xml:space="preserve">
<polygon fill="#F49314" points="7.546,12 30.454,12 19,29.518 "/>
<path opacity="0.8" fill="none" stroke="#231F20" stroke-width="2" stroke-miterlimit="10" d="M19,35L2,9h34L19,35z M19,19.476
	C19.231,18.884,19.208,17,17.375,17C15.875,17,15,17.99,15,19.623c0,2,1.5,3.377,4,3.377c2,0,4-1.464,4-4.464S20.936,13,17.293,13
	C13.53,13,11,15.54,11,19.625C11,24,14.583,27,19,27c5.75,0,8-4.292,8-8.791C27,14.625,24.25,9,17.313,9"/>
</svg>
