<?xml version="1.0" encoding="utf-8"?>
<!-- Generator: Adobe Illustrator 15.0.0, SVG Export Plug-In . SVG Version: 6.00 Build 0)  -->
<!DOCTYPE svg PUBLIC "-//W3C//DTD SVG 1.1//EN" "http://www.w3.org/Graphics/SVG/1.1/DTD/svg11.dtd">
<svg version="1.1" id="Layer_1" xmlns="http://www.w3.org/2000/svg" xmlns:xlink="http://www.w3.org/1999/xlink" x="0px" y="0px"
	 width="38px" height="38px" viewBox="0 0 38 38" enable-background="new 0 0 38 38" xml:space="preserve">
<path fill="#F4ABEF" d="M19,14.08c-6.073,0-11.224,3.896-13.126,9.319c0.687,0.755,1.482,1.446,2.438,2.064
	c3.057,1.98,5.753,2.466,9.688,2.528L20,28v-0.008c3.936-0.063,6.632-0.548,9.689-2.527c0.955-0.619,1.751-1.31,2.437-2.065
	C30.225,17.977,25.073,14.08,19,14.08z"/>
<path opacity="0.8" fill="none" stroke="#231F20" stroke-width="2" stroke-miterlimit="10" d="M38,27c-9,0-8.451,4-19,4
	C8.452,31,9,27,0,27 M25,19.75c0-5.321-2.631-9.302-6-13.75c-3.368,4.448-6,8.429-6,13.75c0,3.812,2.067,7.25,6,7.25
	C22.932,27,25,23.562,25,19.75z M15.958,16.833C13.246,13.998,7.996,13,2.107,13c1.684,5.141,2.801,9.069,6.748,11.625
	C11.929,26.616,14.542,27,19,27C19,22.292,18.955,19.965,15.958,16.833z M19,27c4.458,0,7.071-0.384,10.146-2.375
	c3.946-2.556,5.063-6.484,6.747-11.625c-5.889,0-11.138,0.998-13.851,3.833C19.045,19.965,19,22.292,19,27z M15.565,11
	C13.767,9.313,12.282,8.313,9,7v6.582 M28.999,13.582V7c-3.282,1.313-4.768,2.313-6.565,4"/>
</svg>
