<?xml version="1.0" encoding="utf-8"?>
<!-- Generator: Adobe Illustrator 15.0.0, SVG Export Plug-In . SVG Version: 6.00 Build 0)  -->
<!DOCTYPE svg PUBLIC "-//W3C//DTD SVG 1.1//EN" "http://www.w3.org/Graphics/SVG/1.1/DTD/svg11.dtd">
<svg version="1.1" id="Layer_1" xmlns="http://www.w3.org/2000/svg" xmlns:xlink="http://www.w3.org/1999/xlink" x="0px" y="0px"
	 width="38px" height="38px" viewBox="0 0 38 38" enable-background="new 0 0 38 38" xml:space="preserve">
<path fill="#F4ABEF" d="M31,14c-0.358,0-0.694,0.067-1,0.172V8h-1c-2.684,0-3.975-0.93-5.34-1.915
	C22.673,5.374,21.583,4.598,20,4.226v31.686c1.17-0.182,2.272-0.674,3.226-1.469c0.582-0.484,1.122-0.922,1.62-1.326
	c3.039-2.465,4.83-3.917,5.114-7.21C32.259,25.459,34,23.429,34,21v-4C34,15.346,32.654,14,31,14z"/>
<path opacity="0.8" fill="none" stroke="#231F20" stroke-width="2" stroke-miterlimit="10" d="M18,5c5.063,0,5.188,4,11,4
	c0,1.571,0,13.768,0,15.933C29,29,27,30,22.586,33.675C21.55,34.538,20.306,35,19,35c-1.307,0-2.547-0.466-3.586-1.329
	C11,30,9,29,9,24.933C9,22.768,9,7.125,9,7.125s4.405-3.209,6.02-4.142S18.125,1,20.367,1c4.008,0,5.07,4,8.633,4c0.563,0,1,0,1,0
	 M19,16v8 M11.471,18c0,0,1.613,1,2.599,1c0.986,0,1.993,0,1.993,0 M21.938,19c0,0,1.007,0,1.993,0s2.599-1,2.599-1 M14.329,25.875
	c0,0,1.976,1.125,4.671,1.125c2.689,0,4.671-1.125,4.671-1.125 M9,16c0,0-0.896-1-2-1s-2,0.896-2,2v4c0,2.208,1.791,4,4,4 M29,25
	c2.209,0,4-1.791,4-4v-4c0-1.104-0.896-2-2-2s-2,1-2,1 M18,15c-1,0-4-1-6-1c-1,0-3,1-3,1 M29,15c0,0-2-1-3-1c-2,0-5,1-6,1 M13,32v6
	 M25,32v6"/>
</svg>
