<?xml version="1.0" encoding="utf-8"?>
<!-- Generator: Adobe Illustrator 15.0.0, SVG Export Plug-In . SVG Version: 6.00 Build 0)  -->
<!DOCTYPE svg PUBLIC "-//W3C//DTD SVG 1.1//EN" "http://www.w3.org/Graphics/SVG/1.1/DTD/svg11.dtd">
<svg version="1.1" id="Layer_1" xmlns="http://www.w3.org/2000/svg" xmlns:xlink="http://www.w3.org/1999/xlink" x="0px" y="0px"
	 width="38px" height="38px" viewBox="0 0 38 38" enable-background="new 0 0 38 38" xml:space="preserve">
<path fill="#F4D240" d="M19,36.414l-0.707-0.707c-0.177-0.176-0.624-0.402-1.057-0.622c-0.835-0.423-2.115-1.071-2.743-2.213
	c-1.179,0.554-2.594,0.328-3.52,0.179c-0.479-0.077-0.975-0.153-1.221-0.118l-0.988,0.158l-0.157-0.988
	c-0.039-0.247-0.268-0.693-0.489-1.125c-0.427-0.834-1.081-2.11-0.918-3.403c-1.28-0.244-2.291-1.261-2.952-1.925
	c-0.342-0.344-0.696-0.699-0.919-0.813l-0.892-0.453l0.454-0.892c0.113-0.224,0.191-0.719,0.266-1.198
	c0.144-0.926,0.365-2.343,1.257-3.293c-0.893-0.95-1.113-2.367-1.257-3.292c-0.075-0.479-0.152-0.976-0.265-1.198L2.437,13.62
	l0.891-0.455c0.223-0.114,0.577-0.469,0.918-0.813c0.661-0.664,1.673-1.681,2.953-1.925C7.036,9.134,7.69,7.858,8.118,7.024
	C8.339,6.593,8.568,6.146,8.607,5.9l0.156-0.988l0.988,0.156c0.25,0.043,0.742-0.04,1.221-0.118c0.925-0.147,2.341-0.376,3.52,0.178
	c0.628-1.143,1.908-1.791,2.744-2.213c0.433-0.219,0.88-0.445,1.057-0.622L19,1.586l0.708,0.707
	c0.177,0.176,0.624,0.403,1.057,0.622c0.836,0.423,2.115,1.071,2.743,2.213c1.181-0.555,2.598-0.327,3.521-0.178
	c0.478,0.077,0.972,0.159,1.22,0.118l0.986-0.156l0.157,0.986c0.039,0.247,0.268,0.692,0.489,1.124
	c0.428,0.834,1.082,2.111,0.918,3.405c1.282,0.244,2.294,1.262,2.955,1.926c0.342,0.344,0.695,0.699,0.917,0.812l0.89,0.454
	l-0.452,0.891c-0.113,0.223-0.19,0.718-0.265,1.196c-0.145,0.926-0.365,2.344-1.258,3.294c0.893,0.95,1.113,2.368,1.257,3.294
	c0.075,0.479,0.152,0.975,0.265,1.196l0.454,0.891l-0.89,0.454c-0.223,0.113-0.576,0.469-0.918,0.813
	c-0.661,0.664-1.673,1.682-2.954,1.926c0.164,1.294-0.491,2.57-0.919,3.404c-0.221,0.431-0.45,0.877-0.489,1.123l-0.156,0.987
	l-0.986-0.155c-0.247-0.041-0.741,0.04-1.221,0.117c-0.923,0.149-2.34,0.378-3.521-0.179c-0.628,1.144-1.908,1.791-2.745,2.214
	c-0.433,0.22-0.88,0.445-1.056,0.622L19,36.414z M19,10c-4.971,0-9,4.029-9,9s4.029,9,9,9s9-4.029,9-9S23.971,10,19,10z"/>
<path opacity="0.8" fill="none" stroke="#231F20" stroke-width="2" stroke-miterlimit="10" d="M31,19c0,6.627-5.373,12-12,12
	S7,25.627,7,19S12.373,7,19,7S31,12.373,31,19z M15.291,7.585C14.302,4.541,17.953,4.047,19,3c1.048,1.047,4.697,1.542,3.709,4.585
	 M22.709,30.415C23.698,33.459,20.047,33.953,19,35c-1.048-1.047-4.697-1.543-3.709-4.585 M9.289,11.946
	C6.7,10.064,9.364,7.519,9.595,6.056c1.463,0.231,4.707-1.513,5.696,1.529 M28.71,26.055c2.59,1.882-0.074,4.428-0.306,5.89
	c-1.463-0.23-4.707,1.513-5.695-1.529 M6.997,19.001c-3.201,0-2.541-3.626-3.214-4.945c1.32-0.673,2.919-3.991,5.507-2.111
	 M31.002,19c3.201,0,2.543,3.626,3.215,4.944c-1.319,0.674-2.919,3.991-5.507,2.11 M9.29,26.056
	c-2.589,1.882-4.187-1.439-5.507-2.11C4.455,22.624,3.799,19.001,6.998,19 M28.71,11.946c2.59-1.882,4.188,1.438,5.507,2.11
	c-0.671,1.32-0.016,4.945-3.215,4.944 M15.291,30.416c-0.989,3.044-4.233,1.296-5.696,1.529c-0.233-1.464-2.893-4.01-0.306-5.891
	 M22.709,7.586c0.988-3.045,4.233-1.298,5.695-1.53c0.233,1.462,2.894,4.01,0.305,5.89 M19,31L8.607,13 M29.389,13.001L8.607,13
	 M29.389,13.001L19,31"/>
</svg>
