<?xml version="1.0" encoding="utf-8"?>
<!-- Generator: Adobe Illustrator 15.0.0, SVG Export Plug-In . SVG Version: 6.00 Build 0)  -->
<!DOCTYPE svg PUBLIC "-//W3C//DTD SVG 1.1//EN" "http://www.w3.org/Graphics/SVG/1.1/DTD/svg11.dtd">
<svg version="1.1" id="Layer_1" xmlns="http://www.w3.org/2000/svg" xmlns:xlink="http://www.w3.org/1999/xlink" x="0px" y="0px"
	 width="38px" height="38px" viewBox="0 0 38 38" enable-background="new 0 0 38 38" xml:space="preserve">
<path fill="#F49314" d="M16,32c-0.898,0-4,0-4-4s3-10,3-10l1.613,2.646L19,13c0,0,5,11,5,15s-4,4-5,4H16z"/>
<path opacity="0.8" fill="none" stroke="#231F20" stroke-width="2" stroke-miterlimit="10" d="M21,16c0,0,0-9.896,0-11s0.896-2,2-2
	s2,0.896,2,2s0,14,0,14 M18,35c0,0,2.398,0,3,0c4.417,0,8-4.833,8-10c0-1-0.886-2.75-1.539-4c-0.652-1.25-1.336-2-2.961-2
	c0,0-4.896,0-6,0s-2,0.896-2,2s0.896,2,2,2s5,0,5,0c-2.813,0-6.5,2-6.5,7 M13,18c0,0,0-9.896,0-11s-0.896-2-2-2S9,5.896,9,7
	s0,19,0,21c0,4.917,2.625,7,6,7c0.342,0,1,0,1,0 M21,16c0,0,0-11.896,0-13s-0.896-2-2-2s-2,0.896-2,2s0,13,0,13 M17,13
	c0-1.104-0.896-2-2-2s-2,0.896-2,2s0,4.896,0,6s0.896,2,2,2s2-0.896,2-2S17,14.104,17,13z"/>
</svg>
