<?xml version="1.0" encoding="utf-8"?>
<!-- Generator: Adobe Illustrator 15.0.0, SVG Export Plug-In . SVG Version: 6.00 Build 0)  -->
<!DOCTYPE svg PUBLIC "-//W3C//DTD SVG 1.1//EN" "http://www.w3.org/Graphics/SVG/1.1/DTD/svg11.dtd">
<svg version="1.1" id="Layer_1" xmlns="http://www.w3.org/2000/svg" xmlns:xlink="http://www.w3.org/1999/xlink" x="0px" y="0px"
	 width="38px" height="38px" viewBox="0 0 38 38" enable-background="new 0 0 38 38" xml:space="preserve">
<circle fill="#F4ABEF" cx="19" cy="13" r="9"/>
<path opacity="0.8" fill="none" stroke="#231F20" stroke-width="2" stroke-miterlimit="10" d="M24.5,26.646
	c2-0.287,2.5,0.895,2.5,1.729c0,0.786-0.536,1.555-1.359,1.829C23.598,30.885,20.782,31,19,31c-2.969,0-7.792-1.083-11.375-4.666
	c-4-4-5.48-6.916-6.625-7.334v-6c0,0,2,0,5,0s6,2,6,2s3.896,0,5,0s2,0.896,2,2s-0.896,2-2,2s-2.583,0-4,0s-2,0.75-2,2
	c0,3.875,4.167,6,9,6c2.5,0,6.781-0.125,11-3c4.675-3.186,5.031-4.648,6-5v-6c0,0-2,0-5,0s-6,2-6,2s-3.896,0-5,0s-2,0.896-2,2
	s0.896,2,2,2s2.584,0,4,0c0.875,0,2,0.084,2,1.334C27,22.042,23.958,23,20,23c-2.554,0-4.672-0.948-6.134-1.877
	c-1.401-0.889-2.849,0.284-2.849,0.284"/>
</svg>
