<?xml version="1.0" encoding="utf-8"?>
<!-- Generator: Adobe Illustrator 15.0.0, SVG Export Plug-In . SVG Version: 6.00 Build 0)  -->
<!DOCTYPE svg PUBLIC "-//W3C//DTD SVG 1.1//EN" "http://www.w3.org/Graphics/SVG/1.1/DTD/svg11.dtd">
<svg version="1.1" id="Layer_1" xmlns="http://www.w3.org/2000/svg" xmlns:xlink="http://www.w3.org/1999/xlink" x="0px" y="0px"
	 width="38px" height="38px" viewBox="0 0 38 38" enable-background="new 0 0 38 38" xml:space="preserve">
<path fill="#F4ABEF" d="M30,19c0,6.076-4.925,11-11,11c-6.075,0-11-4.924-11-11c0-3.185,1.353-6.052,3.515-8.061
	c1.798,1.061,3.395,2.846,3.395,2.846S16,10,19,8c3,2,4.014,5.755,4.014,5.755s1.646-1.755,3.468-2.82
	C28.646,12.944,30,15.813,30,19z"/>
<path opacity="0.8" fill="none" stroke="#231F20" stroke-width="2" stroke-miterlimit="10" d="M36,33c0,0-8.658,0-9,0
	c-3.375,0-8-2.083-8-7c0,0,0-15.893,0-18.998c0-1.104,0.896-2,2-2S23,5.5,23,5.5V17 M19,7.002c0,0,0-2.896,0-4s0.896-2,2-2
	S23,1.5,23,1.5V10c0,0,2.198,7.462,3.688,11.87C26.884,22.449,27.25,23,28,23s8,0,8,0 M2,33c0,0,8.658,0,9,0c3.375,0,8-2.083,8-7
	c0,0,0-15.893,0-18.998c0-1.104-0.896-2-2-2S15,5.5,15,5.5V17 M2,23c0,0,7.25,0,8,0s1.116-0.551,1.312-1.13
	C12.802,17.462,15,10,15,10V1.5c0,0,0.896-0.498,2-0.498s2,0.896,2,2s0,4,0,4"/>
</svg>
