<?xml version="1.0" encoding="utf-8"?>
<!-- Generator: Adobe Illustrator 15.0.0, SVG Export Plug-In . SVG Version: 6.00 Build 0)  -->
<!DOCTYPE svg PUBLIC "-//W3C//DTD SVG 1.1//EN" "http://www.w3.org/Graphics/SVG/1.1/DTD/svg11.dtd">
<svg version="1.1" id="Layer_1" xmlns="http://www.w3.org/2000/svg" xmlns:xlink="http://www.w3.org/1999/xlink" x="0px" y="0px"
	 width="38px" height="38px" viewBox="0 0 38 38" enable-background="new 0 0 38 38" xml:space="preserve">
<path fill="#F4D240" d="M21.688,22.293c0,0-1.367-0.33-3.032-0.16C17.97,20.605,17,19.588,17,19.588s-0.97,1.019-1.655,2.545
	c-1.665-0.17-3.032,0.161-3.032,0.161S12.71,23.643,13.689,25c-0.979,1.357-1.376,2.706-1.376,2.706s1.367,0.331,3.032,0.161
	C16.03,29.394,17,30.412,17,30.412s0.97-1.019,1.655-2.545c1.666,0.17,3.032-0.161,3.032-0.161S21.29,26.357,20.311,25
	C21.29,23.643,21.688,22.293,21.688,22.293z"/>
<path opacity="0.8" fill="none" stroke="#231F20" stroke-width="2" stroke-miterlimit="10" d="M21,16c0,0,0-9.896,0-11s0.896-2,2-2
	s2,0.896,2,2s0,16.688,0,16.688c0,1.625,1.416,1.533,1.781,0.6c0.366-0.934,1.953-4.986,2.355-6.016
	c0.403-1.029,1.563-1.535,2.592-1.133c1.029,0.402,1.536,1.563,1.133,2.592c-0.402,1.027-3.098,7.914-3.463,8.846
	C27.515,31.387,26.292,35,21.875,35C21.273,35,18,35,18,35 M13,18c0,0,0-9.896,0-11s-0.896-2-2-2S9,5.896,9,7s0,19,0,21
	c0,4.917,2.625,7,6,7c0.342,0,1,0,1,0 M21,16c0,0,0-11.896,0-13s-0.896-2-2-2s-2,0.896-2,2s0,13,0,13 M17,16c0-1.104,0-9.896,0-11
	s-0.896-2-2-2s-2,0.896-2,2s0,9.896,0,11"/>
</svg>
