<?xml version="1.0" encoding="utf-8"?>
<!-- Generator: Adobe Illustrator 15.0.0, SVG Export Plug-In . SVG Version: 6.00 Build 0)  -->
<!DOCTYPE svg PUBLIC "-//W3C//DTD SVG 1.1//EN" "http://www.w3.org/Graphics/SVG/1.1/DTD/svg11.dtd">
<svg version="1.1" id="Layer_1" xmlns="http://www.w3.org/2000/svg" xmlns:xlink="http://www.w3.org/1999/xlink" x="0px" y="0px"
	 width="38px" height="38px" viewBox="0 0 38 38" enable-background="new 0 0 38 38" xml:space="preserve">
<path fill="#EF6C6C" d="M19,37.977l-0.707-0.707c-0.896-0.896-2.016-1.405-3.201-1.944C12.705,34.239,10,33.009,10,28.358V28H9.642
	c-4.65,0-5.881-2.705-6.967-5.092c-0.539-1.186-1.048-2.305-1.944-3.201L0.023,19l0.707-0.707c0.896-0.896,1.405-2.016,1.944-3.201
	C3.761,12.705,4.991,10,9.642,10H10V9.642c0-4.65,2.705-5.881,5.092-6.967c1.185-0.539,2.304-1.048,3.201-1.944L19,0.023
	l0.707,0.707c0.896,0.896,2.016,1.405,3.201,1.944C25.295,3.761,28,4.991,28,9.642V10h0.358c4.65,0,5.881,2.705,6.967,5.092
	c0.539,1.185,1.048,2.304,1.944,3.201L37.977,19l-0.707,0.707c-0.896,0.896-1.405,2.016-1.944,3.201
	C34.239,25.295,33.009,28,28.358,28H28v0.358c0,4.65-2.705,5.881-5.092,6.967c-1.186,0.539-2.305,1.048-3.201,1.944L19,37.977z
	 M19,11c-4.419,0-8,3.581-8,8s3.581,8,8,8s8-3.581,8-8S23.419,11,19,11z"/>
<path opacity="0.8" fill="none" stroke="#231F20" stroke-width="2" stroke-miterlimit="10" d="M30.314,19
	c0,6.25-5.064,11.314-11.314,11.314S7.685,25.25,7.685,19S12.75,7.685,19,7.685S30.314,12.75,30.314,19z M19,27l7-12H12L19,27
	 M11,28.358c0,6.084,5,5.204,8,8.204c3-3,8-2.12,8-8.204c0-1.001,0-17.716,0-18.717c0-6.084-5-5.204-8-8.204c-3,3-8,2.12-8,8.204
	C11,10.645,11,27.355,11,28.358z M9.642,11c-6.084,0-5.204,5-8.204,8c3,3,2.12,8,8.204,8c1.001,0,17.716,0,18.717,0
	c6.084,0,5.204-5,8.204-8c-3-3-2.12-8-8.204-8C27.355,11,10.645,11,9.642,11z"/>
</svg>
