<?xml version="1.0" encoding="utf-8"?>
<!-- Generator: Adobe Illustrator 15.0.0, SVG Export Plug-In . SVG Version: 6.00 Build 0)  -->
<!DOCTYPE svg PUBLIC "-//W3C//DTD SVG 1.1//EN" "http://www.w3.org/Graphics/SVG/1.1/DTD/svg11.dtd">
<svg version="1.1" id="Layer_1" xmlns="http://www.w3.org/2000/svg" xmlns:xlink="http://www.w3.org/1999/xlink" x="0px" y="0px"
	 width="38px" height="38px" viewBox="0 0 38 38" enable-background="new 0 0 38 38" xml:space="preserve">
<path fill="#F49314" d="M36,19c0-2.554-1.598-4.729-3.846-5.595c0.693-2.086,0.233-4.472-1.427-6.133
	c-1.661-1.661-4.046-2.121-6.133-1.427C23.728,3.598,21.554,2,19,2c-2.553,0-4.728,1.598-5.594,3.845
	c-2.086-0.693-4.473-0.234-6.134,1.427c-1.66,1.661-2.12,4.046-1.427,6.133C3.597,14.271,2,16.446,2,19
	c0,2.553,1.598,4.728,3.845,5.595c-0.693,2.086-0.234,4.472,1.427,6.133c1.66,1.66,4.046,2.12,6.133,1.427
	C14.271,34.402,16.447,36,19,36c2.554,0,4.729-1.598,5.595-3.846c2.087,0.693,4.473,0.233,6.133-1.427
	c1.661-1.661,2.12-4.047,1.427-6.133C34.402,23.729,36,21.553,36,19z"/>
<path fill="none" stroke="#231F20" stroke-width="2" stroke-miterlimit="10" stroke-opacity="0.8" d="M8.89,15.441
	c0,0,2.591-2.226,5.11-2.441c1.47-0.126,3,0.504,3,2.442c0,1.746-1.543,3.306-3,3.558c1.746,0,9,1.188,9,8
	c0,3.5-2.538,6.111-6.349,6c-5.403-0.157-6.468-4.601-10.078-5.786c-1.669-0.548-3.082,0.411-3.082,0.411 M26.228,26.188
	c0,0,1.46,1.813,3.328,1.813c2.554,0,3.71-1.832,3.397-5.375C32.649,19.184,29.055,15,25.365,15c-4.259,0-3.691,4.594-7.635,4.78
	 M14,7c0,0,4.375,4,9.313,4c3.313,0,4.375-3,4.375-3 M22.5,6C22.224,6,22,6.224,22,6.5S22.224,7,22.5,7S23,6.776,23,6.5
	S22.776,6,22.5,6z"/>
</svg>
