<?xml version="1.0" encoding="utf-8"?>
<!-- Generator: Adobe Illustrator 15.0.0, SVG Export Plug-In . SVG Version: 6.00 Build 0)  -->
<!DOCTYPE svg PUBLIC "-//W3C//DTD SVG 1.1//EN" "http://www.w3.org/Graphics/SVG/1.1/DTD/svg11.dtd">
<svg version="1.1" id="Layer_1" xmlns="http://www.w3.org/2000/svg" xmlns:xlink="http://www.w3.org/1999/xlink" x="0px" y="0px"
	 width="38px" height="38px" viewBox="0 0 38 38" enable-background="new 0 0 38 38" xml:space="preserve">
<path fill="#EF7BEF" d="M36.732,23.181l0.209,0.627l-0.494,0.438c-0.119,0.106-1.678,1.471-3.842,2.608
	c0.097,2.444-0.307,4.478-0.339,4.634l-0.132,0.647l-0.647,0.132c-0.156,0.031-2.194,0.439-4.632,0.338
	c-1.139,2.165-2.505,3.724-2.61,3.843l-0.438,0.494l-0.626-0.209c-0.151-0.05-2.112-0.718-4.18-2.022
	c-2.069,1.305-4.031,1.973-4.182,2.022l-0.627,0.209l-0.438-0.494c-0.105-0.119-1.47-1.678-2.608-3.842
	c-2.44,0.1-4.478-0.308-4.634-0.339l-0.647-0.132l-0.132-0.647c-0.032-0.156-0.434-2.188-0.337-4.632
	c-2.165-1.139-3.724-2.505-3.843-2.61l-0.494-0.438l0.209-0.626c0.051-0.151,0.718-2.112,2.024-4.18
	c-1.306-2.069-1.974-4.032-2.024-4.183l-0.209-0.627l0.495-0.438c0.119-0.105,1.678-1.47,3.843-2.608
	C5.299,8.701,5.702,6.668,5.734,6.512l0.132-0.647l0.647-0.132c0.156-0.032,2.186-0.43,4.632-0.337
	c1.139-2.165,2.504-3.724,2.61-3.843l0.438-0.494l0.627,0.209C14.971,1.317,16.932,1.985,19,3.291
	c2.069-1.306,4.031-1.973,4.182-2.023l0.627-0.209l0.438,0.495c0.106,0.119,1.471,1.678,2.608,3.842
	c2.442-0.096,4.477,0.306,4.633,0.339l0.647,0.132l0.132,0.647c0.032,0.156,0.435,2.188,0.338,4.631
	c2.165,1.139,3.724,2.504,3.843,2.61l0.494,0.438l-0.209,0.626c-0.05,0.151-0.718,2.112-2.022,4.18
	C36.015,21.068,36.683,23.029,36.732,23.181z M19,10c-4.971,0-9,4.029-9,9s4.029,9,9,9s9-4.029,9-9S23.971,10,19,10z"/>
<path opacity="0.8" fill="none" stroke="#231F20" stroke-width="2" stroke-miterlimit="10" d="M13.807,21.998
	c-7.621,4.399,0.696,13.786,0.696,13.786s11.898-3.968,7.496-11.591 M24.193,16.002c7.621-4.399-0.695-13.786-0.695-13.786
	S11.6,6.184,16.002,13.807 M19,24.997c0,8.8,12.287,6.29,12.287,6.29S33.8,18.999,24.997,19 M19,13.003
	c0-8.8-12.287-6.291-12.287-6.291S4.201,19.001,13.003,19 M24.193,21.999c7.621,4.4,11.591-7.496,11.591-7.496
	s-9.385-8.32-13.785-0.696 M13.807,16.001c-7.621-4.4-11.592,7.496-11.592,7.496s9.386,8.32,13.787,0.696 M16.001,24.193
	c-4.4,7.62,7.496,11.591,7.496,11.591s8.32-9.385,0.696-13.785 M21.998,13.807c4.4-7.621-7.495-11.592-7.495-11.592
	s-8.321,9.386-0.697,13.786 M21.998,24.193c4.399,7.621,13.786-0.696,13.786-0.696S31.816,11.6,24.193,16.001 M16.002,13.807
	c-4.399-7.621-13.787,0.695-13.787,0.695S6.184,26.4,13.807,21.998 M24.997,19.001c8.8,0,6.29-12.288,6.29-12.288S19,4.2,19,13.003
	 M13.003,19c-8.8-0.001-6.291,12.287-6.291,12.287S19.001,33.8,19,24.997 M25,19c0,3.313-2.687,6-6,6s-6-2.687-6-6s2.687-6,6-6
	S25,15.687,25,19z"/>
</svg>
