<?xml version="1.0" encoding="utf-8"?>
<!-- Generator: Adobe Illustrator 15.0.0, SVG Export Plug-In . SVG Version: 6.00 Build 0)  -->
<!DOCTYPE svg PUBLIC "-//W3C//DTD SVG 1.1//EN" "http://www.w3.org/Graphics/SVG/1.1/DTD/svg11.dtd">
<svg version="1.1" id="Layer_1" xmlns="http://www.w3.org/2000/svg" xmlns:xlink="http://www.w3.org/1999/xlink" x="0px" y="0px"
	 width="38px" height="38px" viewBox="0 0 38 38" enable-background="new 0 0 38 38" xml:space="preserve">
<path fill="#F49314" d="M19,36.883l-0.707-0.705c-0.146-0.146-0.604-0.44-1.048-0.726c-1.533-0.983-4.271-2.741-4.733-5.214
	c-2.375,0.834-5.262-0.655-6.88-1.491c-0.469-0.242-0.954-0.492-1.154-0.546l-0.966-0.258l0.259-0.967
	c0.054-0.2,0.079-0.745,0.104-1.271c0.086-1.818,0.24-5.066,2.149-6.704c-1.911-1.636-2.064-4.885-2.149-6.705
	c-0.025-0.527-0.05-1.072-0.104-1.272l-0.259-0.966l0.966-0.259c0.2-0.054,0.685-0.304,1.153-0.545
	c1.618-0.835,4.507-2.326,6.88-1.491c0.461-2.473,3.199-4.23,4.732-5.214c0.444-0.285,0.903-0.58,1.05-0.726L19,1.116l0.708,0.707
	c0.146,0.146,0.605,0.441,1.049,0.726c1.532,0.984,4.27,2.742,4.731,5.214c2.373-0.839,5.265,0.655,6.884,1.491
	c0.468,0.242,0.952,0.492,1.151,0.545l0.966,0.259l-0.259,0.966c-0.054,0.2-0.079,0.745-0.104,1.271
	c-0.086,1.819-0.24,5.067-2.149,6.704c1.912,1.636,2.064,4.887,2.15,6.706c0.024,0.527,0.05,1.071,0.104,1.271l0.259,0.966
	l-0.966,0.259c-0.2,0.054-0.685,0.304-1.153,0.545c-1.618,0.835-4.508,2.326-6.881,1.491c-0.461,2.474-3.2,4.23-4.733,5.215
	c-0.444,0.284-0.902,0.579-1.048,0.725L19,36.883z M19,12c-3.86,0-7,3.14-7,7c0,3.859,3.14,7,7,7c3.859,0,7-3.141,7-7
	C26,15.14,22.859,12,19,12z"/>
<path opacity="0.8" fill="none" stroke="#231F20" stroke-width="2" stroke-miterlimit="10" d="M29,19c0,5.521-4.479,10-10,10
	c-5.522,0-10-4.479-10-10c0-5.522,4.478-10,10-10C24.521,9,29,13.478,29,19z M26,16c0,3.863-3.137,7-7,7c-3.866,0-7-3.137-7-7
	c0-3.866,3.134-7,7-7C22.863,9,26,12.134,26,16z M14,10.34c-2.4-4.159,3.922-6.731,5-7.81c1.079,1.078,7.396,3.653,5,7.809
	 M24,27.66c2.399,4.158-3.922,6.732-5,7.81c-1.079-1.077-7.397-3.653-5-7.81 M9,19c-4.802,0-3.868-6.763-4.263-8.235
	C6.21,10.37,11.599,6.187,14,10.34 M29,19c4.802,0.002,3.869,6.764,4.264,8.235C31.791,27.63,26.4,31.814,24,27.66 M14,27.66
	c-2.401,4.158-7.791-0.031-9.263-0.425C5.131,25.762,4.203,19.003,9,19 M24,10.341c2.402-4.158,7.792,0.03,9.264,0.424
	C32.869,12.238,33.797,18.997,29,19"/>
</svg>
