<?xml version="1.0" encoding="utf-8"?>
<!-- Generator: Adobe Illustrator 15.0.0, SVG Export Plug-In . SVG Version: 6.00 Build 0)  -->
<!DOCTYPE svg PUBLIC "-//W3C//DTD SVG 1.1//EN" "http://www.w3.org/Graphics/SVG/1.1/DTD/svg11.dtd">
<svg version="1.1" id="Layer_1" xmlns="http://www.w3.org/2000/svg" xmlns:xlink="http://www.w3.org/1999/xlink" x="0px" y="0px"
	 width="38px" height="38px" viewBox="0 0 38 38" enable-background="new 0 0 38 38" xml:space="preserve">
<path fill="#79CAF7" d="M18.999,36.324l-0.655-0.568c-0.096-0.084-0.281-0.193-0.478-0.31c-0.531-0.313-1.309-0.773-1.815-1.628
	c-0.794,0.596-1.688,0.723-2.299,0.81c-0.226,0.032-0.438,0.063-0.56,0.104l-0.823,0.273l-0.388-0.776
	c-0.057-0.114-0.186-0.286-0.322-0.468c-0.37-0.494-0.911-1.216-1.052-2.198c-0.961,0.246-1.837,0.022-2.435-0.132
	c-0.221-0.057-0.43-0.109-0.557-0.119l-0.866-0.061l-0.061-0.866c-0.009-0.127-0.063-0.336-0.119-0.557
	c-0.153-0.598-0.377-1.472-0.131-2.434c-0.984-0.141-1.706-0.683-2.199-1.053c-0.183-0.137-0.355-0.266-0.469-0.323l-0.777-0.388
	l0.275-0.823c0.041-0.121,0.071-0.335,0.104-0.561c0.087-0.61,0.215-1.503,0.811-2.298c-0.855-0.507-1.315-1.284-1.629-1.814
	c-0.116-0.196-0.226-0.382-0.31-0.479l-0.569-0.655l0.569-0.656c0.083-0.096,0.193-0.281,0.31-0.478
	c0.314-0.53,0.774-1.307,1.629-1.813c-0.596-0.795-0.724-1.689-0.811-2.3c-0.032-0.226-0.063-0.439-0.103-0.56L2.993,12.37
	l0.777-0.388c0.114-0.057,0.287-0.186,0.469-0.323c0.493-0.37,1.215-0.911,2.198-1.051C6.19,9.646,6.415,8.771,6.568,8.173
	c0.057-0.221,0.11-0.43,0.119-0.557L6.749,6.75l0.866-0.061C7.742,6.68,7.951,6.626,8.171,6.57c0.598-0.153,1.472-0.377,2.434-0.131
	c0.141-0.983,0.683-1.705,1.053-2.199c0.137-0.183,0.267-0.355,0.323-0.469l0.388-0.777l0.824,0.275
	c0.121,0.04,0.334,0.071,0.56,0.103c0.61,0.087,1.503,0.215,2.298,0.811c0.506-0.854,1.283-1.314,1.814-1.629
	c0.196-0.116,0.382-0.226,0.478-0.309l0.656-0.569l0.656,0.569c0.096,0.084,0.281,0.193,0.477,0.31
	c0.531,0.314,1.308,0.774,1.814,1.63c0.796-0.597,1.69-0.725,2.302-0.812c0.226-0.032,0.438-0.062,0.559-0.103l0.823-0.274
	l0.388,0.776c0.057,0.114,0.187,0.286,0.323,0.469c0.37,0.493,0.913,1.215,1.054,2.199c0.962-0.246,1.836-0.022,2.435,0.131
	c0.221,0.057,0.429,0.11,0.556,0.119l0.865,0.062l0.061,0.865c0.01,0.127,0.063,0.335,0.12,0.556
	c0.153,0.598,0.378,1.472,0.131,2.435c0.984,0.141,1.706,0.683,2.199,1.054c0.182,0.136,0.354,0.266,0.468,0.322l0.775,0.388
	l-0.273,0.823c-0.041,0.121-0.071,0.334-0.104,0.56c-0.087,0.611-0.214,1.505-0.81,2.3c0.854,0.506,1.314,1.284,1.629,1.815
	c0.115,0.195,0.225,0.381,0.309,0.477l0.567,0.655l-0.567,0.655c-0.084,0.096-0.193,0.281-0.309,0.478
	c-0.314,0.531-0.774,1.309-1.629,1.814c0.596,0.795,0.723,1.688,0.81,2.299c0.032,0.226,0.063,0.438,0.103,0.559l0.274,0.822
	l-0.775,0.389c-0.113,0.057-0.285,0.186-0.468,0.323c-0.493,0.371-1.216,0.914-2.2,1.055c0.246,0.962,0.022,1.836-0.131,2.434
	c-0.057,0.221-0.109,0.429-0.119,0.556l-0.061,0.866l-0.866,0.061c-0.127,0.01-0.335,0.063-0.556,0.12
	c-0.598,0.154-1.473,0.379-2.436,0.132c-0.141,0.983-0.683,1.705-1.053,2.199c-0.137,0.182-0.266,0.354-0.322,0.468l-0.388,0.775
	l-0.823-0.274c-0.121-0.04-0.334-0.07-0.56-0.103c-0.611-0.087-1.506-0.214-2.301-0.811c-0.507,0.855-1.283,1.315-1.814,1.629
	c-0.196,0.116-0.38,0.226-0.477,0.31L18.999,36.324z M19,10c-4.971,0-9,4.029-9,9s4.029,9,9,9s9-4.029,9-9S23.971,10,19,10z"/>
<path opacity="0.8" fill="none" stroke="#231F20" stroke-width="2" stroke-miterlimit="10" d="M31,19c0,6.627-5.373,12-12,12
	c-6.627,0-12-5.373-12-12c0-6.627,5.373-12,12-12C25.627,7,31,12.373,31,19z M19,13c-3.313,0-6,2.687-6,6c0,3.312,2.687,6,6,6
	c3.312,0,6-2.688,6-6C25,15.687,22.312,13,19,13z M25.663,9.022c1.778-2.66,3.574-1.411,4.649-1.334
	c0.076,1.075,1.326,2.869-1.331,4.645 M12.331,28.982c-1.776,2.657-3.569,1.408-4.646,1.332c-0.076-1.076-1.324-2.871,1.335-4.65
	 M28.978,25.665c2.659,1.778,1.411,3.573,1.335,4.648c-1.075,0.076-2.869,1.327-4.645-1.33 M9.017,12.333
	c-2.657-1.776-1.407-3.57-1.332-4.646c1.076-0.076,2.871-1.324,4.65,1.336 M30.767,16.657c3.139-0.623,3.525,1.53,4.231,2.344
	c-0.706,0.814-1.091,2.966-4.226,2.343 M7.226,21.344c-3.135,0.623-3.52-1.528-4.227-2.343c0.708-0.814,1.094-2.966,4.233-2.344
	 M21.342,30.77c0.623,3.138-1.529,3.524-2.343,4.23c-0.814-0.706-2.967-1.091-2.344-4.225 M16.655,7.227
	c-0.623-3.135,1.53-3.52,2.344-4.227c0.814,0.707,2.966,1.094,2.343,4.232 M21.337,7.231c0.626-3.138,2.763-2.671,3.785-3.012
	c0.481,0.964,2.323,2.143,0.548,4.8 M16.659,30.774c-0.624,3.134-2.759,2.667-3.782,3.008c-0.481-0.965-2.322-2.146-0.546-4.808
	 M30.769,21.339c3.138,0.625,2.671,2.761,3.012,3.783c-0.964,0.482-2.143,2.324-4.8,0.549 M7.225,16.66
	c-3.135-0.624-2.667-2.76-3.008-3.783c0.965-0.481,2.146-2.322,4.807-0.545 M28.974,12.332c2.662-1.777,3.843,0.064,4.807,0.546
	c-0.341,1.023,0.127,3.158-3.007,3.782 M9.019,25.671c-2.658,1.775-3.837-0.065-4.802-0.547c0.342-1.023-0.125-3.159,3.014-3.786
	 M25.667,28.977c1.776,2.661-0.063,3.842-0.545,4.806c-1.022-0.341-3.159,0.127-3.782-3.007 M12.328,9.02
	c-1.775-2.658,0.067-3.837,0.548-4.802c1.023,0.342,3.159-0.125,3.784,3.014 M19,31L8.608,13 M8.608,13l20.781,0 M29.39,13.001
	L19,31"/>
</svg>
