<?xml version="1.0" encoding="utf-8"?>
<!-- Generator: Adobe Illustrator 15.0.0, SVG Export Plug-In . SVG Version: 6.00 Build 0)  -->
<!DOCTYPE svg PUBLIC "-//W3C//DTD SVG 1.1//EN" "http://www.w3.org/Graphics/SVG/1.1/DTD/svg11.dtd">
<svg version="1.1" id="Layer_1" xmlns="http://www.w3.org/2000/svg" xmlns:xlink="http://www.w3.org/1999/xlink" x="0px" y="0px"
	 width="38px" height="38px" viewBox="0 0 38 38" enable-background="new 0 0 38 38" xml:space="preserve">
<path fill="#79CAF7" d="M31,16c-0.359,0-0.693,0.071-1,0.176v-0.752l-1.965-1.205C25.73,12.79,22.533,10.863,20,9.533v26.36
	c0.764-0.147,1.537-0.455,2.373-0.964l0.418-0.25c2.025-1.205,6.602-3.928,7.153-8.775C32.25,25.461,34,23.434,34,21v-2
	C34,17.346,32.654,16,31,16z"/>
<path opacity="0.8" fill="none" stroke="#231F20" stroke-width="2" stroke-miterlimit="10" d="M10.204,8.239
	C11.896,5.119,15.201,3,19,3c5.522,0,10,4.477,10,10c0,5.522,0,9.143,0,11.933c0,5.241-5.226,7.974-7.146,9.143
	C20.972,34.611,20.04,35,19,35c-1.04,0-1.97-0.391-2.854-0.927C14.225,32.906,9,30.174,9,24.933c0-2.79,0-6.41,0-11.933
	c0-0.837,0.103-1.65,0.296-2.427 M19,18v8 M11.471,20c0,0,1.613,1,2.599,1c0.986,0,1.993,0,1.993,0 M21.938,21c0,0,1.007,0,1.993,0
	s2.599-1,2.599-1 M15.534,27.875c0,0,1.625,1.125,3.466,1.125c1.837,0,3.466-1.125,3.466-1.125 M9,18c0,0-0.896-1-2-1s-2,0.896-2,2
	v2c0,2.208,1.791,4,4,4 M29,25c2.209,0,4-1.791,4-4v-2c0-1.104-0.896-2-2-2s-2,1-2,1 M16,16c-1,0-2-1-4-1c-1,0-3,1-3,1 M29,16
	c0,0-2-1-3-1c-2,0-3,1-4,1 M15,33.386V38 M23,33.386V38 M29,16c0,0-11.121-7-12.75-7s-2.452,1.313-2.452,1.313 M23,33.386
	c0,0,1.667,3.614,8.287,3.614C33,37,34,37,34,37 M29,25c0,3.866,1.134,8,5,8"/>
</svg>
