<?xml version="1.0" encoding="utf-8"?>
<!-- Generator: Adobe Illustrator 15.0.0, SVG Export Plug-In . SVG Version: 6.00 Build 0)  -->
<!DOCTYPE svg PUBLIC "-//W3C//DTD SVG 1.1//EN" "http://www.w3.org/Graphics/SVG/1.1/DTD/svg11.dtd">
<svg version="1.1" id="Layer_1" xmlns="http://www.w3.org/2000/svg" xmlns:xlink="http://www.w3.org/1999/xlink" x="0px" y="0px"
	 width="38px" height="38px" viewBox="0 0 38 38" enable-background="new 0 0 38 38" xml:space="preserve">
<path fill="#EF6C6C" d="M22,18.017V8H10v10.033l-3.685,0.005C7.219,22.651,11.292,26,16,26c2.335,0,4.517-0.788,6.307-2.278
	C25.369,21.173,29.181,18,34,18L22,18.017z"/>
<path opacity="0.8" fill="none" stroke="#231F20" stroke-width="2" stroke-miterlimit="10" d="M21.337,30.012L23,35H9l1.663-4.988
	 M21,19c0,0,0-8.239,0-11s-2.239-5-5-5s-5,2.239-5,5s0,11,0,11 M38,19H1.408C2.749,25.839,8.769,31,16,31
	c3.616,0,6.929-1.29,9.506-3.436C28.082,25.42,31,23,34,23c1,0,4,0,4,0s-2,0-3,0"/>
</svg>
